<?xml version="1.0" encoding="utf-8"?>
<svg viewBox="0 0 24 24" xmlns="http://www.w3.org/2000/svg">
  <path d="M 24 1.38 C 24 1.58 23.949 1.782 23.859 1.996 L 14.816 21.697 C 14.546 22.259 14.097 22.527 13.469 22.527 L 10.544 22.527 C 9.915 22.527 9.466 22.246 9.197 21.697 L 0.141 1.996 C 0.038 1.782 0 1.58 0 1.38 C 0 1.125 0.077 0.871 0.243 0.643 C 0.539 0.215 0.949 0 1.488 0 L 4.656 0 C 5.079 0 5.439 0.134 5.721 0.415 C 6.003 0.697 6.144 1.032 6.144 1.406 C 6.144 1.795 6.003 2.13 5.721 2.397 C 5.439 2.679 5.079 2.813 4.656 2.813 L 3.745 2.813 L 11.519 19.688 L 12.494 19.688 L 20.267 2.813 L 19.357 2.813 C 18.934 2.813 18.574 2.679 18.292 2.397 C 18.01 2.116 17.869 1.782 17.869 1.406 C 17.869 1.018 18.01 0.683 18.292 0.415 C 18.574 0.134 18.92 0 19.357 0 L 22.512 0 C 23.051 0 23.461 0.215 23.756 0.643 C 23.923 0.871 24 1.112 24 1.38 Z" fill="#13072F" style="stroke-width: 0.203;" transform="matrix(1, 0, 0, 1, 7.105427357601002e-15, 0)"/>
  <path d="M 12.443 7.366 C 13.058 7.795 13.995 8.21 14.79 8.21 C 15.508 8.21 16.176 8.09 16.753 7.728 L 12.314 17.357 L 11.699 17.357 L 7.247 7.728 C 7.953 6.924 8.953 6.509 10.082 6.509 C 10.878 6.509 11.827 6.938 12.443 7.366 Z" fill="#3BB143" style="stroke-width: 0.203;" transform="matrix(1, 0, 0, 1, 7.105427357601002e-15, 0)"/>
  <path d="M 15.316 2.946 C 16.095 2.946 16.727 2.287 16.727 1.473 C 16.727 0.659 16.095 0 15.316 0 C 14.537 0 13.905 0.659 13.905 1.473 C 13.905 2.287 14.537 2.946 15.316 2.946 Z" fill="#3BB143" style="stroke-width: 0.203;" transform="matrix(1, 0, 0, 1, 7.105427357601002e-15, 0)"/>
  <path d="M 11.442 4.112 C 12.065 4.112 12.571 3.584 12.571 2.933 C 12.571 2.282 12.065 1.755 11.442 1.755 C 10.819 1.755 10.313 2.282 10.313 2.933 C 10.313 3.584 10.819 4.112 11.442 4.112 Z" fill="#3BB143" style="stroke-width: 0.203;" transform="matrix(1, 0, 0, 1, 7.105427357601002e-15, 0)"/>
  <path d="M 14.687 6.308 C 15.204 6.308 15.624 5.87 15.624 5.331 C 15.624 4.791 15.204 4.353 14.687 4.353 C 14.17 4.353 13.751 4.791 13.751 5.331 C 13.751 5.87 14.17 6.308 14.687 6.308 Z" fill="#3BB143" style="stroke-width: 0.203;" transform="matrix(1, 0, 0, 1, 7.105427357601002e-15, 0)"/>
</svg>
